<svg width="159" height="26" viewBox="0 0 159 26" fill="none" xmlns="http://www.w3.org/2000/svg">
<path d="M6.90909 25.2273C5.66667 25.2273 4.52273 24.9015 3.47727 24.25C2.43939 23.5985 1.60606 22.6098 0.977273 21.2841C0.356061 19.9583 0.0454546 18.2879 0.0454546 16.2727C0.0454546 14.1667 0.371212 12.4545 1.02273 11.1364C1.68182 9.81818 2.5303 8.85227 3.56818 8.23864C4.61364 7.625 5.71212 7.31818 6.86364 7.31818C7.72727 7.31818 8.48485 7.4697 9.13636 7.77273C9.78788 8.06818 10.3333 8.46591 10.7727 8.96591C11.2121 9.45833 11.5455 10 11.7727 10.5909H11.8636V1.72727H18.1364V25H11.9091V22.1364H11.7727C11.5303 22.7273 11.1818 23.2576 10.7273 23.7273C10.2803 24.1894 9.73485 24.5568 9.09091 24.8295C8.45455 25.0947 7.72727 25.2273 6.90909 25.2273ZM9.22727 20.4091C9.80303 20.4091 10.2955 20.2424 10.7045 19.9091C11.1212 19.5682 11.4394 19.0909 11.6591 18.4773C11.8864 17.8561 12 17.1212 12 16.2727C12 15.4091 11.8864 14.6705 11.6591 14.0568C11.4394 13.4356 11.1212 12.9621 10.7045 12.6364C10.2955 12.303 9.80303 12.1364 9.22727 12.1364C8.65152 12.1364 8.15909 12.303 7.75 12.6364C7.34849 12.9621 7.03788 13.4356 6.81818 14.0568C6.60606 14.6705 6.5 15.4091 6.5 16.2727C6.5 17.1364 6.60606 17.8788 6.81818 18.5C7.03788 19.1136 7.34849 19.5871 7.75 19.9205C8.15909 20.2462 8.65152 20.4091 9.22727 20.4091ZM29.5795 25.3182C27.7159 25.3182 26.1098 24.9621 24.7614 24.25C23.4205 23.5303 22.3864 22.5 21.6591 21.1591C20.9394 19.8106 20.5795 18.197 20.5795 16.3182C20.5795 14.5152 20.9432 12.9394 21.6705 11.5909C22.3977 10.2424 23.4242 9.19318 24.75 8.44318C26.0758 7.69318 27.6402 7.31818 29.4432 7.31818C30.7614 7.31818 31.9545 7.52273 33.0227 7.93182C34.0909 8.34091 35.0038 8.93561 35.7614 9.71591C36.5189 10.4886 37.1023 11.428 37.5114 12.5341C37.9205 13.6402 38.125 14.8864 38.125 16.2727V17.7273H22.5341V14.2727H32.3523C32.3447 13.7727 32.2159 13.3333 31.9659 12.9545C31.7235 12.5682 31.3939 12.2689 30.9773 12.0568C30.5682 11.8371 30.1023 11.7273 29.5795 11.7273C29.072 11.7273 28.6061 11.8371 28.1818 12.0568C27.7576 12.2689 27.4167 12.5644 27.1591 12.9432C26.9091 13.322 26.7765 13.7652 26.7614 14.2727V18C26.7614 18.5606 26.8788 19.0606 27.1136 19.5C27.3485 19.9394 27.6856 20.2841 28.125 20.5341C28.5644 20.7841 29.0947 20.9091 29.7159 20.9091C30.1477 20.9091 30.5417 20.8485 30.8977 20.7273C31.2614 20.6061 31.572 20.4318 31.8295 20.2045C32.0871 19.9697 32.2765 19.6894 32.3977 19.3636H38.125C37.928 20.5758 37.4621 21.6288 36.7273 22.5227C35.9924 23.4091 35.0189 24.0985 33.8068 24.5909C32.6023 25.0758 31.1932 25.3182 29.5795 25.3182ZM57.8381 7.54545L51.9744 25H44.7017L38.8381 7.54545H45.429L48.2472 19.0909H48.429L51.2472 7.54545H57.8381ZM65.8949 15.1818V25H59.6222V1.72727H65.6676V10.8636H65.8494C66.2434 9.75 66.8987 8.88258 67.8153 8.26136C68.732 7.63258 69.8343 7.31818 71.1222 7.31818C72.357 7.31818 73.429 7.59848 74.3381 8.15909C75.2547 8.7197 75.9631 9.49242 76.4631 10.4773C76.9706 11.4621 77.2206 12.5909 77.2131 13.8636V25H70.9403V15.1818C70.9479 14.3182 70.732 13.6402 70.2926 13.1477C69.8608 12.6553 69.2434 12.4091 68.4403 12.4091C67.9328 12.4091 67.4858 12.5227 67.0994 12.75C66.7206 12.9697 66.4252 13.2879 66.2131 13.7045C66.0085 14.1136 65.9025 14.6061 65.8949 15.1818ZM91.6278 17.3636V7.54545H97.9006V25H91.946V21.6818H91.7642C91.3854 22.7955 90.7225 23.6667 89.7756 24.2955C88.8286 24.9167 87.7036 25.2273 86.4006 25.2273C85.1809 25.2273 84.1127 24.947 83.196 24.3864C82.2869 23.8258 81.5786 23.053 81.071 22.0682C80.571 21.0833 80.3172 19.9545 80.3097 18.6818V7.54545H86.5824V17.3636C86.59 18.2273 86.8097 18.9053 87.2415 19.3977C87.6809 19.8902 88.2945 20.1364 89.0824 20.1364C89.6051 20.1364 90.0559 20.0265 90.4347 19.8068C90.821 19.5795 91.1165 19.2614 91.321 18.8523C91.5331 18.4356 91.6354 17.9394 91.6278 17.3636ZM101 25V1.72727H107.273V10.5909H107.364C107.591 10 107.924 9.45833 108.364 8.96591C108.803 8.46591 109.348 8.06818 110 7.77273C110.652 7.4697 111.409 7.31818 112.273 7.31818C113.424 7.31818 114.519 7.625 115.557 8.23864C116.602 8.85227 117.451 9.81818 118.102 11.1364C118.761 12.4545 119.091 14.1667 119.091 16.2727C119.091 18.2879 118.777 19.9583 118.148 21.2841C117.527 22.6098 116.693 23.5985 115.648 24.25C114.61 24.9015 113.47 25.2273 112.227 25.2273C111.409 25.2273 110.678 25.0947 110.034 24.8295C109.398 24.5568 108.852 24.1894 108.398 23.7273C107.951 23.2576 107.606 22.7273 107.364 22.1364H107.227V25H101ZM107.136 16.2727C107.136 17.1212 107.246 17.8561 107.466 18.4773C107.693 19.0909 108.011 19.5682 108.42 19.9091C108.837 20.2424 109.333 20.4091 109.909 20.4091C110.485 20.4091 110.973 20.2462 111.375 19.9205C111.784 19.5871 112.095 19.1136 112.307 18.5C112.527 17.8788 112.636 17.1364 112.636 16.2727C112.636 15.4091 112.527 14.6705 112.307 14.0568C112.095 13.4356 111.784 12.9621 111.375 12.6364C110.973 12.303 110.485 12.1364 109.909 12.1364C109.333 12.1364 108.837 12.303 108.42 12.6364C108.011 12.9621 107.693 13.4356 107.466 14.0568C107.246 14.6705 107.136 15.4091 107.136 16.2727ZM125.125 25.3636C124.246 25.3636 123.492 25.0568 122.864 24.4432C122.242 23.822 121.936 23.0682 121.943 22.1818C121.936 21.3182 122.242 20.5795 122.864 19.9659C123.492 19.3523 124.246 19.0455 125.125 19.0455C125.958 19.0455 126.693 19.3523 127.33 19.9659C127.973 20.5795 128.299 21.3182 128.307 22.1818C128.299 22.7727 128.144 23.3106 127.841 23.7955C127.545 24.2727 127.159 24.6553 126.682 24.9432C126.205 25.2235 125.686 25.3636 125.125 25.3636Z" fill="#021222"/>
<path d="M131.716 25V7.54545H137.989V25H131.716ZM134.852 5.72727C134.004 5.72727 133.277 5.44697 132.67 4.88636C132.064 4.32576 131.761 3.65151 131.761 2.86364C131.761 2.07576 132.064 1.40151 132.67 0.840908C133.277 0.280303 134.004 0 134.852 0C135.708 0 136.436 0.280303 137.034 0.840908C137.64 1.40151 137.943 2.07576 137.943 2.86364C137.943 3.65151 137.64 4.32576 137.034 4.88636C136.436 5.44697 135.708 5.72727 134.852 5.72727Z" fill="#0B60B0"/>
<path d="M149.594 25.3182C147.7 25.3182 146.079 24.9432 144.73 24.1932C143.382 23.4356 142.348 22.3826 141.628 21.0341C140.908 19.678 140.548 18.1061 140.548 16.3182C140.548 14.5303 140.908 12.9621 141.628 11.6136C142.348 10.2576 143.382 9.20454 144.73 8.45454C146.079 7.69697 147.7 7.31818 149.594 7.31818C151.488 7.31818 153.109 7.69697 154.457 8.45454C155.806 9.20454 156.84 10.2576 157.56 11.6136C158.279 12.9621 158.639 14.5303 158.639 16.3182C158.639 18.1061 158.279 19.678 157.56 21.0341C156.84 22.3826 155.806 23.4356 154.457 24.1932C153.109 24.9432 151.488 25.3182 149.594 25.3182ZM149.639 20.6818C150.17 20.6818 150.628 20.5038 151.014 20.1477C151.401 19.7917 151.7 19.2841 151.912 18.625C152.124 17.9659 152.23 17.1818 152.23 16.2727C152.23 15.3561 152.124 14.572 151.912 13.9205C151.7 13.2614 151.401 12.7538 151.014 12.3977C150.628 12.0417 150.17 11.8636 149.639 11.8636C149.079 11.8636 148.598 12.0417 148.196 12.3977C147.795 12.7538 147.488 13.2614 147.276 13.9205C147.063 14.572 146.957 15.3561 146.957 16.2727C146.957 17.1818 147.063 17.9659 147.276 18.625C147.488 19.2841 147.795 19.7917 148.196 20.1477C148.598 20.5038 149.079 20.6818 149.639 20.6818Z" fill="#40A2D8"/>
</svg>
